# xmcd
#
# Track frame offsets:
#	150
#	12850
#	24857
#	37673
#	50745
#	61441
#	73689
#	86082
#	99231
#	112305
#	123535
#	136860
#	149049
#	160883
#	173165
#	187210
#	198444
#	211264
#	224930
#	237690
#	250373
#	264074
#	275507
#	288962
#	303027
#	313884
#	325636
#	336075
#	347515
#
# Disc length: 4769 seconds
#
# Revision: 1
# Processed by: cddbd v1.5.2PL0 Copyright (c) Steve Scherf et al.
# Submitted via: audiograbber 1.83.01
#
DISCID=be129f1d
DTITLE=Various Artist - Big Box Of Blues - Cd6
DYEAR=1900
DGENRE=Blues
TTITLE0=Larry Liggett - That Man Is Walking 
TTITLE1=Amos Milburn - It Took a Long Long Time 
TTITLE2=Jimmy Rogers - Walking by Myself 
TTITLE3=Brownie McGhee - Born for Bad Luck 
TTITLE4=Amos Milburn - Real Pretty Mama 
TTITLE5=Little Walter - Too Late 
TTITLE6=Pee Wee Crayton - Daybreak 
TTITLE7=Willie Mabon - Seventh Son 
TTITLE8=Amos Milburn - Drifting Blues 
TTITLE9=Amos Milburn - Amos' Blues 
TTITLE10=Amos Milburn - That Was Your Last Mistake 
TTITLE11=Amos Milburn - Pot Luck Boogie 
TTITLE12=John Lee Hooker - Queen Bee 
TTITLE13=Brownie McGhee - Death of Blind Boy Fuller 
TTITLE14=Lowell Fulson - Tollin' Bells 
TTITLE15=Wynonie Harris - Lovin' Machine 
TTITLE16=Brownie McGhee - Jealous of My Woman 
TTITLE17=Bobby "Blue" Bland  -No Blow, No Show 
TTITLE18=Brownie McGhee - Be Good to Me 
TTITLE19=Wynonie Harris - I Feel That Old Age Coming On 
TTITLE20=Bo Diddley - I'm a Man 
TTITLE21=Amos Milburn -  My Baby's Boogying 
TTITLE22=Amos Milburn - Just One More Drink 
TTITLE23=Little Walter - You're so Fine 
TTITLE24=Cecil Gant - Lightning Blues 
TTITLE25=Brownie McGhee - Step It Up and Go 
TTITLE26=Little Willie John - Need Your Love So Bad 
TTITLE27=T-Bone Walker - Wanderin' Heart 
TTITLE28=Cecil Gant - We're Gonna Rock 
EXTD=
EXTT0=
EXTT1=
EXTT2=
EXTT3=
EXTT4=
EXTT5=
EXTT6=
EXTT7=
EXTT8=
EXTT9=
EXTT10=
EXTT11=
EXTT12=
EXTT13=
EXTT14=
EXTT15=
EXTT16=
EXTT17=
EXTT18=
EXTT19=
EXTT20=
EXTT21=
EXTT22=
EXTT23=
EXTT24=
EXTT25=
EXTT26=
EXTT27=
EXTT28=
PLAYORDER=
